<mxfile host="app.diagrams.net" modified="2021-01-13T07:26:52.192Z" agent="5.0 (Macintosh; Intel Mac OS X 10_15_6) AppleWebKit/537.36 (KHTML, like Gecko) Chrome/87.0.4280.141 Safari/537.36" etag="tl82yjiZPUZEMd808vNu" version="14.1.9" type="github">
  <diagram id="C5RBs43oDa-KdzZeNtuy" name="Page-1">
    <mxGraphModel dx="1426" dy="650" grid="1" gridSize="10" guides="1" tooltips="1" connect="1" arrows="1" fold="1" page="1" pageScale="1" pageWidth="827" pageHeight="1169" math="0" shadow="0">
      <root>
        <mxCell id="WIyWlLk6GJQsqaUBKTNV-0" />
        <mxCell id="WIyWlLk6GJQsqaUBKTNV-1" parent="WIyWlLk6GJQsqaUBKTNV-0" />
        <mxCell id="5IzvyPoYenIN4oYvT-L3-0" value="" style="whiteSpace=wrap;html=1;" vertex="1" parent="WIyWlLk6GJQsqaUBKTNV-1">
          <mxGeometry x="180" y="320" width="430" height="60" as="geometry" />
        </mxCell>
        <mxCell id="5IzvyPoYenIN4oYvT-L3-1" value="" style="whiteSpace=wrap;html=1;" vertex="1" parent="WIyWlLk6GJQsqaUBKTNV-1">
          <mxGeometry x="180" y="260" width="430" height="60" as="geometry" />
        </mxCell>
        <mxCell id="5IzvyPoYenIN4oYvT-L3-2" value="" style="whiteSpace=wrap;html=1;" vertex="1" parent="WIyWlLk6GJQsqaUBKTNV-1">
          <mxGeometry x="180" y="200" width="430" height="60" as="geometry" />
        </mxCell>
        <mxCell id="5IzvyPoYenIN4oYvT-L3-3" value="业务1" style="whiteSpace=wrap;html=1;" vertex="1" parent="WIyWlLk6GJQsqaUBKTNV-1">
          <mxGeometry x="190" y="210" width="90" height="40" as="geometry" />
        </mxCell>
        <mxCell id="5IzvyPoYenIN4oYvT-L3-4" value="&lt;span&gt;业务2&lt;/span&gt;" style="whiteSpace=wrap;html=1;" vertex="1" parent="WIyWlLk6GJQsqaUBKTNV-1">
          <mxGeometry x="290" y="210" width="90" height="40" as="geometry" />
        </mxCell>
        <mxCell id="5IzvyPoYenIN4oYvT-L3-5" value="&lt;span&gt;业务3&lt;/span&gt;" style="whiteSpace=wrap;html=1;" vertex="1" parent="WIyWlLk6GJQsqaUBKTNV-1">
          <mxGeometry x="390" y="210" width="90" height="40" as="geometry" />
        </mxCell>
        <mxCell id="5IzvyPoYenIN4oYvT-L3-6" value="&lt;span&gt;业务...&lt;/span&gt;" style="whiteSpace=wrap;html=1;" vertex="1" parent="WIyWlLk6GJQsqaUBKTNV-1">
          <mxGeometry x="500" y="210" width="90" height="40" as="geometry" />
        </mxCell>
        <mxCell id="5IzvyPoYenIN4oYvT-L3-7" value="用来C端承载下沉" style="text;html=1;align=center;verticalAlign=middle;resizable=0;points=[];autosize=1;" vertex="1" parent="WIyWlLk6GJQsqaUBKTNV-1">
          <mxGeometry x="55" y="280" width="110" height="20" as="geometry" />
        </mxCell>
        <mxCell id="5IzvyPoYenIN4oYvT-L3-8" value="BC端下沉基础" style="text;html=1;align=center;verticalAlign=middle;resizable=0;points=[];autosize=1;" vertex="1" parent="WIyWlLk6GJQsqaUBKTNV-1">
          <mxGeometry x="45" y="340" width="90" height="20" as="geometry" />
        </mxCell>
        <mxCell id="5IzvyPoYenIN4oYvT-L3-9" value="Pins" style="text;html=1;align=center;verticalAlign=middle;resizable=0;points=[];autosize=1;" vertex="1" parent="WIyWlLk6GJQsqaUBKTNV-1">
          <mxGeometry x="70" y="220" width="40" height="20" as="geometry" />
        </mxCell>
        <mxCell id="5IzvyPoYenIN4oYvT-L3-10" value="Data" style="rounded=0;whiteSpace=wrap;html=1;" vertex="1" parent="WIyWlLk6GJQsqaUBKTNV-1">
          <mxGeometry x="450" y="270" width="110" height="40" as="geometry" />
        </mxCell>
        <mxCell id="5IzvyPoYenIN4oYvT-L3-11" value="Base" style="whiteSpace=wrap;html=1;" vertex="1" parent="WIyWlLk6GJQsqaUBKTNV-1">
          <mxGeometry x="260" y="270" width="90" height="40" as="geometry" />
        </mxCell>
      </root>
    </mxGraphModel>
  </diagram>
</mxfile>
